<svg xmlns="http://www.w3.org/2000/svg" width="512" height="512" viewBox="0 0 24 24">
    <path fill="#FFFFFF"
        d="M6.25 19.5c-1.601 0-3.025-1.025-3.542-2.551l-.035-.115c-.122-.404-.173-.744-.173-1.084V8.932L.074 17.03c-.312 1.191.399 2.426 1.592 2.755l15.463 4.141c.193.05.386.074.576.074.996 0 1.906-.661 2.161-1.635l.901-2.865zM9 9c1.103 0 2-.897 2-2s-.897-2-2-2-2 .897-2 2 .897 2 2 2zm12.5-7h-15C5.122 2 4 3.122 4 4.5v11C4 16.878 5.122 18 6.5 18h15c1.378 0 2.5-1.122 2.5-2.5v-11C24 3.122 22.878 2 21.5 2zm-15 2h15a.5.5 0 0 1 .5.5v7.099l-3.159-3.686c-.335-.393-.82-.603-1.341-.615a1.75 1.75 0 0 0-1.336.631l-3.714 4.458-1.21-1.207c-.684-.684-1.797-.684-2.48 0L6 13.939V4.5a.5.5 0 0 1 .5-.5z"
    />
</svg>