<svg xmlns="http://www.w3.org/2000/svg" xmlns:xlink="http://www.w3.org/1999/xlink" width="512"
    height="512" >
    <defs>
        <path id="B"
            d="M467 61H165c-24.82 0-45 20.19-45 45 0 24.82 20.18 45 45 45h302c24.81 0 45-20.18 45-45 0-24.81-20.19-45-45-45z" />
        <path id="C"
            d="M45 211c-24.82 0-45 20.19-45 45 0 24.82 20.18 45 45 45 24.81 0 45-20.18 45-45 0-24.81-20.19-45-45-45z" />
    </defs>
    <g fill="#fff">
        <use xlink:href="#B" />
        <use xlink:href="#B" y="150" />
        <use xlink:href="#B" y="300" />
        <path
            d="M45 61C20.18 61 0 81.19 0 106c0 24.82 20.18 45 45 45 24.81 0 45-20.18 45-45 0-24.81-20.19-45-45-45z" />
        <use xlink:href="#C" />
        <use xlink:href="#C" y="150" />
    </g>

</svg>